<svg viewBox="0 0 24 24" viewBox="0 0 24 24" width="24" height="24" fill="none" xmlns="http://www.w3.org/2000/svg">
    <path
        d="M11.495 2.714a.563.563 0 0 1 1.01 0l2.674 5.418c.082.166.24.281.424.308l5.979.869a.563.563 0 0 1 .312.96l-4.327 4.218a.563.563 0 0 0-.162.498l1.022 5.955a.563.563 0 0 1-.817.594l-5.348-2.812a.563.563 0 0 0-.524 0L6.39 21.534a.563.563 0 0 1-.818-.594l1.022-5.955a.563.563 0 0 0-.162-.498L2.105 10.27a.563.563 0 0 1 .312-.961l5.98-.869a.563.563 0 0 0 .424-.308l2.674-5.418Z"
        fill="#F3C945" />
</svg>